<mxfile host="app.diagrams.net" modified="2023-06-14T07:50:10.335Z" agent="Mozilla/5.0 (Windows NT 10.0; Win64; x64) AppleWebKit/537.36 (KHTML, like Gecko) Chrome/114.0.0.0 Safari/537.36" etag="W2QN0eeI3XVpbtL8S2v4" version="21.3.8" type="google">
  <diagram name="페이지-1" id="q2ys15_tjPWMSS7dMWg_">
    <mxGraphModel grid="1" page="1" gridSize="10" guides="1" tooltips="1" connect="1" arrows="1" fold="1" pageScale="1" pageWidth="827" pageHeight="1169" math="0" shadow="0">
      <root>
        <mxCell id="0" />
        <mxCell id="1" parent="0" />
        <mxCell id="hr1qq8S8WIhstJESoV6x-5" value="BehaviourTree" style="swimlane;fontStyle=1;align=center;verticalAlign=top;childLayout=stackLayout;horizontal=1;startSize=26;horizontalStack=0;resizeParent=1;resizeParentMax=0;resizeLast=0;collapsible=1;marginBottom=0;whiteSpace=wrap;html=1;" vertex="1" parent="1">
          <mxGeometry x="40" y="130" width="340" height="580" as="geometry" />
        </mxCell>
        <mxCell id="6iZXGJcBs2CQ44Jfs6Sm-9" value="+ isRunning : bool" style="text;strokeColor=none;fillColor=none;align=left;verticalAlign=top;spacingLeft=4;spacingRight=4;overflow=hidden;rotatable=0;points=[[0,0.5],[1,0.5]];portConstraint=eastwest;whiteSpace=wrap;html=1;" vertex="1" parent="hr1qq8S8WIhstJESoV6x-5">
          <mxGeometry y="26" width="340" height="26" as="geometry" />
        </mxCell>
        <mxCell id="hr1qq8S8WIhstJESoV6x-6" value="+ cts : DisposableCancellationTokenSource" style="text;strokeColor=none;fillColor=none;align=left;verticalAlign=top;spacingLeft=4;spacingRight=4;overflow=hidden;rotatable=0;points=[[0,0.5],[1,0.5]];portConstraint=eastwest;whiteSpace=wrap;html=1;" vertex="1" parent="hr1qq8S8WIhstJESoV6x-5">
          <mxGeometry y="52" width="340" height="26" as="geometry" />
        </mxCell>
        <mxCell id="6iZXGJcBs2CQ44Jfs6Sm-12" value="+ currentPausables : List&amp;lt;IPausable&amp;gt;" style="text;strokeColor=none;fillColor=none;align=left;verticalAlign=top;spacingLeft=4;spacingRight=4;overflow=hidden;rotatable=0;points=[[0,0.5],[1,0.5]];portConstraint=eastwest;whiteSpace=wrap;html=1;" vertex="1" parent="hr1qq8S8WIhstJESoV6x-5">
          <mxGeometry y="78" width="340" height="26" as="geometry" />
        </mxCell>
        <mxCell id="6iZXGJcBs2CQ44Jfs6Sm-11" value="+ currentExecutions : List&amp;lt;Execution&amp;gt;" style="text;strokeColor=none;fillColor=none;align=left;verticalAlign=top;spacingLeft=4;spacingRight=4;overflow=hidden;rotatable=0;points=[[0,0.5],[1,0.5]];portConstraint=eastwest;whiteSpace=wrap;html=1;" vertex="1" parent="hr1qq8S8WIhstJESoV6x-5">
          <mxGeometry y="104" width="340" height="26" as="geometry" />
        </mxCell>
        <mxCell id="6iZXGJcBs2CQ44Jfs6Sm-14" value="- currentPausablesWatingQueue : ConcurrentQueue&amp;lt;Action&amp;gt;" style="text;strokeColor=none;fillColor=none;align=left;verticalAlign=top;spacingLeft=4;spacingRight=4;overflow=hidden;rotatable=0;points=[[0,0.5],[1,0.5]];portConstraint=eastwest;whiteSpace=wrap;html=1;" vertex="1" parent="hr1qq8S8WIhstJESoV6x-5">
          <mxGeometry y="130" width="340" height="26" as="geometry" />
        </mxCell>
        <mxCell id="6iZXGJcBs2CQ44Jfs6Sm-13" value="- currentExecutionsWatingQueue : ConcurrentQueue&amp;lt;Action&amp;gt;" style="text;strokeColor=none;fillColor=none;align=left;verticalAlign=top;spacingLeft=4;spacingRight=4;overflow=hidden;rotatable=0;points=[[0,0.5],[1,0.5]];portConstraint=eastwest;whiteSpace=wrap;html=1;" vertex="1" parent="hr1qq8S8WIhstJESoV6x-5">
          <mxGeometry y="156" width="340" height="26" as="geometry" />
        </mxCell>
        <mxCell id="6iZXGJcBs2CQ44Jfs6Sm-10" value="- root : Node" style="text;strokeColor=none;fillColor=none;align=left;verticalAlign=top;spacingLeft=4;spacingRight=4;overflow=hidden;rotatable=0;points=[[0,0.5],[1,0.5]];portConstraint=eastwest;whiteSpace=wrap;html=1;" vertex="1" parent="hr1qq8S8WIhstJESoV6x-5">
          <mxGeometry y="182" width="340" height="26" as="geometry" />
        </mxCell>
        <mxCell id="hr1qq8S8WIhstJESoV6x-7" value="" style="line;strokeWidth=1;fillColor=none;align=left;verticalAlign=middle;spacingTop=-1;spacingLeft=3;spacingRight=3;rotatable=0;labelPosition=right;points=[];portConstraint=eastwest;strokeColor=inherit;" vertex="1" parent="hr1qq8S8WIhstJESoV6x-5">
          <mxGeometry y="208" width="340" height="8" as="geometry" />
        </mxCell>
        <mxCell id="6iZXGJcBs2CQ44Jfs6Sm-17" value="+ Run() : void" style="text;strokeColor=none;fillColor=none;align=left;verticalAlign=top;spacingLeft=4;spacingRight=4;overflow=hidden;rotatable=0;points=[[0,0.5],[1,0.5]];portConstraint=eastwest;whiteSpace=wrap;html=1;" vertex="1" parent="hr1qq8S8WIhstJESoV6x-5">
          <mxGeometry y="216" width="340" height="26" as="geometry" />
        </mxCell>
        <mxCell id="6iZXGJcBs2CQ44Jfs6Sm-18" value="+ Stop() : void" style="text;strokeColor=none;fillColor=none;align=left;verticalAlign=top;spacingLeft=4;spacingRight=4;overflow=hidden;rotatable=0;points=[[0,0.5],[1,0.5]];portConstraint=eastwest;whiteSpace=wrap;html=1;" vertex="1" parent="hr1qq8S8WIhstJESoV6x-5">
          <mxGeometry y="242" width="340" height="26" as="geometry" />
        </mxCell>
        <mxCell id="6iZXGJcBs2CQ44Jfs6Sm-19" value="+ RunOnce() : void" style="text;strokeColor=none;fillColor=none;align=left;verticalAlign=top;spacingLeft=4;spacingRight=4;overflow=hidden;rotatable=0;points=[[0,0.5],[1,0.5]];portConstraint=eastwest;whiteSpace=wrap;html=1;" vertex="1" parent="hr1qq8S8WIhstJESoV6x-5">
          <mxGeometry y="268" width="340" height="26" as="geometry" />
        </mxCell>
        <mxCell id="6iZXGJcBs2CQ44Jfs6Sm-20" value="+ Tick() : Unitask&amp;lt;void&amp;gt;" style="text;strokeColor=none;fillColor=none;align=left;verticalAlign=top;spacingLeft=4;spacingRight=4;overflow=hidden;rotatable=0;points=[[0,0.5],[1,0.5]];portConstraint=eastwest;whiteSpace=wrap;html=1;" vertex="1" parent="hr1qq8S8WIhstJESoV6x-5">
          <mxGeometry y="294" width="340" height="26" as="geometry" />
        </mxCell>
        <mxCell id="6iZXGJcBs2CQ44Jfs6Sm-21" value="+ Pause(pause : bool) : void" style="text;strokeColor=none;fillColor=none;align=left;verticalAlign=top;spacingLeft=4;spacingRight=4;overflow=hidden;rotatable=0;points=[[0,0.5],[1,0.5]];portConstraint=eastwest;whiteSpace=wrap;html=1;" vertex="1" parent="hr1qq8S8WIhstJESoV6x-5">
          <mxGeometry y="320" width="340" height="26" as="geometry" />
        </mxCell>
        <mxCell id="6iZXGJcBs2CQ44Jfs6Sm-22" value="+ Interrupt(node : Node) : void" style="text;strokeColor=none;fillColor=none;align=left;verticalAlign=top;spacingLeft=4;spacingRight=4;overflow=hidden;rotatable=0;points=[[0,0.5],[1,0.5]];portConstraint=eastwest;whiteSpace=wrap;html=1;" vertex="1" parent="hr1qq8S8WIhstJESoV6x-5">
          <mxGeometry y="346" width="340" height="26" as="geometry" />
        </mxCell>
        <mxCell id="6iZXGJcBs2CQ44Jfs6Sm-23" value="+ InvokeForcely(node : Node) : void" style="text;strokeColor=none;fillColor=none;align=left;verticalAlign=top;spacingLeft=4;spacingRight=4;overflow=hidden;rotatable=0;points=[[0,0.5],[1,0.5]];portConstraint=eastwest;whiteSpace=wrap;html=1;" vertex="1" parent="hr1qq8S8WIhstJESoV6x-5">
          <mxGeometry y="372" width="340" height="26" as="geometry" />
        </mxCell>
        <mxCell id="6iZXGJcBs2CQ44Jfs6Sm-24" value="+ RegisterCurrentExecution(execution : Execution)" style="text;strokeColor=none;fillColor=none;align=left;verticalAlign=top;spacingLeft=4;spacingRight=4;overflow=hidden;rotatable=0;points=[[0,0.5],[1,0.5]];portConstraint=eastwest;whiteSpace=wrap;html=1;" vertex="1" parent="hr1qq8S8WIhstJESoV6x-5">
          <mxGeometry y="398" width="340" height="26" as="geometry" />
        </mxCell>
        <mxCell id="6iZXGJcBs2CQ44Jfs6Sm-27" value="+ UnregisterCurrentExecution(execution : Execution)" style="text;strokeColor=none;fillColor=none;align=left;verticalAlign=top;spacingLeft=4;spacingRight=4;overflow=hidden;rotatable=0;points=[[0,0.5],[1,0.5]];portConstraint=eastwest;whiteSpace=wrap;html=1;" vertex="1" parent="hr1qq8S8WIhstJESoV6x-5">
          <mxGeometry y="424" width="340" height="26" as="geometry" />
        </mxCell>
        <mxCell id="6iZXGJcBs2CQ44Jfs6Sm-25" value="+ RegisterCurrentPausable(pausable IPausable)" style="text;strokeColor=none;fillColor=none;align=left;verticalAlign=top;spacingLeft=4;spacingRight=4;overflow=hidden;rotatable=0;points=[[0,0.5],[1,0.5]];portConstraint=eastwest;whiteSpace=wrap;html=1;" vertex="1" parent="hr1qq8S8WIhstJESoV6x-5">
          <mxGeometry y="450" width="340" height="26" as="geometry" />
        </mxCell>
        <mxCell id="6iZXGJcBs2CQ44Jfs6Sm-26" value="+ UnregisterCurrentPausable(pausable IPausable)" style="text;strokeColor=none;fillColor=none;align=left;verticalAlign=top;spacingLeft=4;spacingRight=4;overflow=hidden;rotatable=0;points=[[0,0.5],[1,0.5]];portConstraint=eastwest;whiteSpace=wrap;html=1;" vertex="1" parent="hr1qq8S8WIhstJESoV6x-5">
          <mxGeometry y="476" width="340" height="26" as="geometry" />
        </mxCell>
        <mxCell id="6iZXGJcBs2CQ44Jfs6Sm-28" value="- Update() : void" style="text;strokeColor=none;fillColor=none;align=left;verticalAlign=top;spacingLeft=4;spacingRight=4;overflow=hidden;rotatable=0;points=[[0,0.5],[1,0.5]];portConstraint=eastwest;whiteSpace=wrap;html=1;" vertex="1" parent="hr1qq8S8WIhstJESoV6x-5">
          <mxGeometry y="502" width="340" height="26" as="geometry" />
        </mxCell>
        <mxCell id="6iZXGJcBs2CQ44Jfs6Sm-29" value="- FixedUpdate() : void" style="text;strokeColor=none;fillColor=none;align=left;verticalAlign=top;spacingLeft=4;spacingRight=4;overflow=hidden;rotatable=0;points=[[0,0.5],[1,0.5]];portConstraint=eastwest;whiteSpace=wrap;html=1;" vertex="1" parent="hr1qq8S8WIhstJESoV6x-5">
          <mxGeometry y="528" width="340" height="26" as="geometry" />
        </mxCell>
        <mxCell id="6iZXGJcBs2CQ44Jfs6Sm-30" value="- RefreshNodeListAsync() : Unitask" style="text;strokeColor=none;fillColor=none;align=left;verticalAlign=top;spacingLeft=4;spacingRight=4;overflow=hidden;rotatable=0;points=[[0,0.5],[1,0.5]];portConstraint=eastwest;whiteSpace=wrap;html=1;" vertex="1" parent="hr1qq8S8WIhstJESoV6x-5">
          <mxGeometry y="554" width="340" height="26" as="geometry" />
        </mxCell>
        <mxCell id="hr1qq8S8WIhstJESoV6x-10" value="Node" style="swimlane;fontStyle=1;align=center;verticalAlign=top;childLayout=stackLayout;horizontal=1;startSize=26;horizontalStack=0;resizeParent=1;resizeParentMax=0;resizeLast=0;collapsible=1;marginBottom=0;whiteSpace=wrap;html=1;" vertex="1" parent="1">
          <mxGeometry x="450" y="130" width="180" height="60" as="geometry" />
        </mxCell>
        <mxCell id="hr1qq8S8WIhstJESoV6x-13" value="" style="line;strokeWidth=1;fillColor=none;align=left;verticalAlign=middle;spacingTop=-1;spacingLeft=3;spacingRight=3;rotatable=0;labelPosition=right;points=[];portConstraint=eastwest;strokeColor=inherit;" vertex="1" parent="hr1qq8S8WIhstJESoV6x-10">
          <mxGeometry y="26" width="180" height="8" as="geometry" />
        </mxCell>
        <mxCell id="hr1qq8S8WIhstJESoV6x-14" value="+ Invoke() : Unitask&amp;lt;Result&amp;gt;" style="text;strokeColor=none;fillColor=none;align=left;verticalAlign=top;spacingLeft=4;spacingRight=4;overflow=hidden;rotatable=0;points=[[0,0.5],[1,0.5]];portConstraint=eastwest;whiteSpace=wrap;html=1;" vertex="1" parent="hr1qq8S8WIhstJESoV6x-10">
          <mxGeometry y="34" width="180" height="26" as="geometry" />
        </mxCell>
        <mxCell id="hr1qq8S8WIhstJESoV6x-16" value="Motion" style="swimlane;fontStyle=1;align=center;verticalAlign=top;childLayout=stackLayout;horizontal=1;startSize=26;horizontalStack=0;resizeParent=1;resizeParentMax=0;resizeLast=0;collapsible=1;marginBottom=0;whiteSpace=wrap;html=1;" vertex="1" parent="1">
          <mxGeometry x="990" y="490" width="180" height="190" as="geometry" />
        </mxCell>
        <mxCell id="hr1qq8S8WIhstJESoV6x-18" value="- animator : Animator" style="text;strokeColor=none;fillColor=none;align=left;verticalAlign=top;spacingLeft=4;spacingRight=4;overflow=hidden;rotatable=0;points=[[0,0.5],[1,0.5]];portConstraint=eastwest;whiteSpace=wrap;html=1;" vertex="1" parent="hr1qq8S8WIhstJESoV6x-16">
          <mxGeometry y="26" width="180" height="26" as="geometry" />
        </mxCell>
        <mxCell id="hr1qq8S8WIhstJESoV6x-19" value="- transform : Transform" style="text;strokeColor=none;fillColor=none;align=left;verticalAlign=top;spacingLeft=4;spacingRight=4;overflow=hidden;rotatable=0;points=[[0,0.5],[1,0.5]];portConstraint=eastwest;whiteSpace=wrap;html=1;" vertex="1" parent="hr1qq8S8WIhstJESoV6x-16">
          <mxGeometry y="52" width="180" height="26" as="geometry" />
        </mxCell>
        <mxCell id="hr1qq8S8WIhstJESoV6x-20" value="- animatorParameterID : int" style="text;strokeColor=none;fillColor=none;align=left;verticalAlign=top;spacingLeft=4;spacingRight=4;overflow=hidden;rotatable=0;points=[[0,0.5],[1,0.5]];portConstraint=eastwest;whiteSpace=wrap;html=1;" vertex="1" parent="hr1qq8S8WIhstJESoV6x-16">
          <mxGeometry y="78" width="180" height="26" as="geometry" />
        </mxCell>
        <mxCell id="hr1qq8S8WIhstJESoV6x-21" value="- animatorMachineHash : int" style="text;strokeColor=none;fillColor=none;align=left;verticalAlign=top;spacingLeft=4;spacingRight=4;overflow=hidden;rotatable=0;points=[[0,0.5],[1,0.5]];portConstraint=eastwest;whiteSpace=wrap;html=1;" vertex="1" parent="hr1qq8S8WIhstJESoV6x-16">
          <mxGeometry y="104" width="180" height="26" as="geometry" />
        </mxCell>
        <mxCell id="hr1qq8S8WIhstJESoV6x-17" value="" style="line;strokeWidth=1;fillColor=none;align=left;verticalAlign=middle;spacingTop=-1;spacingLeft=3;spacingRight=3;rotatable=0;labelPosition=right;points=[];portConstraint=eastwest;strokeColor=inherit;" vertex="1" parent="hr1qq8S8WIhstJESoV6x-16">
          <mxGeometry y="130" width="180" height="8" as="geometry" />
        </mxCell>
        <mxCell id="hr1qq8S8WIhstJESoV6x-22" value="+ Invoke() : Unitask&amp;lt;Result&amp;gt;" style="text;strokeColor=none;fillColor=none;align=left;verticalAlign=top;spacingLeft=4;spacingRight=4;overflow=hidden;rotatable=0;points=[[0,0.5],[1,0.5]];portConstraint=eastwest;whiteSpace=wrap;html=1;" vertex="1" parent="hr1qq8S8WIhstJESoV6x-16">
          <mxGeometry y="138" width="180" height="26" as="geometry" />
        </mxCell>
        <mxCell id="hr1qq8S8WIhstJESoV6x-23" value="+ Invoke() : Unitask&amp;lt;Result&amp;gt;" style="text;strokeColor=none;fillColor=none;align=left;verticalAlign=top;spacingLeft=4;spacingRight=4;overflow=hidden;rotatable=0;points=[[0,0.5],[1,0.5]];portConstraint=eastwest;whiteSpace=wrap;html=1;" vertex="1" parent="hr1qq8S8WIhstJESoV6x-16">
          <mxGeometry y="164" width="180" height="26" as="geometry" />
        </mxCell>
        <mxCell id="6iZXGJcBs2CQ44Jfs6Sm-31" value="1" style="endArrow=open;html=1;endSize=12;startArrow=diamondThin;startSize=14;startFill=1;edgeStyle=orthogonalEdgeStyle;align=left;verticalAlign=bottom;rounded=0;entryX=0;entryY=0.25;entryDx=0;entryDy=0;" edge="1" parent="1" target="hr1qq8S8WIhstJESoV6x-10">
          <mxGeometry x="-1" y="3" relative="1" as="geometry">
            <mxPoint x="380" y="145" as="sourcePoint" />
            <mxPoint x="640" y="420" as="targetPoint" />
          </mxGeometry>
        </mxCell>
        <mxCell id="6iZXGJcBs2CQ44Jfs6Sm-32" value="«interface»&lt;br&gt;&lt;b&gt;IChildParent&lt;br&gt;&lt;br&gt;{get, set} child : Node&lt;br&gt;&lt;/b&gt;" style="html=1;whiteSpace=wrap;" vertex="1" parent="1">
          <mxGeometry x="450" y="240" width="180" height="80" as="geometry" />
        </mxCell>
        <mxCell id="6iZXGJcBs2CQ44Jfs6Sm-33" value="«interface»&lt;br&gt;&lt;b&gt;IChildrenParent&lt;br&gt;&lt;br&gt;{get, set} children : List&amp;lt;Node&amp;gt;&lt;br&gt;&lt;/b&gt;" style="html=1;whiteSpace=wrap;" vertex="1" parent="1">
          <mxGeometry x="450" y="330" width="180" height="80" as="geometry" />
        </mxCell>
        <mxCell id="6iZXGJcBs2CQ44Jfs6Sm-34" value="Root" style="swimlane;fontStyle=1;align=center;verticalAlign=top;childLayout=stackLayout;horizontal=1;startSize=26;horizontalStack=0;resizeParent=1;resizeParentMax=0;resizeLast=0;collapsible=1;marginBottom=0;whiteSpace=wrap;html=1;" vertex="1" parent="1">
          <mxGeometry x="740" y="143" width="180" height="34" as="geometry" />
        </mxCell>
        <mxCell id="6iZXGJcBs2CQ44Jfs6Sm-35" value="" style="line;strokeWidth=1;fillColor=none;align=left;verticalAlign=middle;spacingTop=-1;spacingLeft=3;spacingRight=3;rotatable=0;labelPosition=right;points=[];portConstraint=eastwest;strokeColor=inherit;" vertex="1" parent="6iZXGJcBs2CQ44Jfs6Sm-34">
          <mxGeometry y="26" width="180" height="8" as="geometry" />
        </mxCell>
        <mxCell id="6iZXGJcBs2CQ44Jfs6Sm-37" value="" style="endArrow=block;endSize=16;endFill=0;html=1;rounded=0;" edge="1" parent="1" source="6iZXGJcBs2CQ44Jfs6Sm-34" target="hr1qq8S8WIhstJESoV6x-10">
          <mxGeometry width="160" relative="1" as="geometry">
            <mxPoint x="660" y="350" as="sourcePoint" />
            <mxPoint x="820" y="350" as="targetPoint" />
          </mxGeometry>
        </mxCell>
        <mxCell id="6iZXGJcBs2CQ44Jfs6Sm-38" value="" style="endArrow=block;endSize=16;endFill=0;html=1;rounded=0;strokeWidth=2;" edge="1" parent="1" source="6iZXGJcBs2CQ44Jfs6Sm-34" target="6iZXGJcBs2CQ44Jfs6Sm-32">
          <mxGeometry width="160" relative="1" as="geometry">
            <mxPoint x="710" y="170" as="sourcePoint" />
            <mxPoint x="640" y="170" as="targetPoint" />
          </mxGeometry>
        </mxCell>
        <mxCell id="6iZXGJcBs2CQ44Jfs6Sm-39" value="Condition" style="swimlane;fontStyle=1;align=center;verticalAlign=top;childLayout=stackLayout;horizontal=1;startSize=26;horizontalStack=0;resizeParent=1;resizeParentMax=0;resizeLast=0;collapsible=1;marginBottom=0;whiteSpace=wrap;html=1;" vertex="1" parent="1">
          <mxGeometry x="740" y="190" width="180" height="60" as="geometry" />
        </mxCell>
        <mxCell id="6iZXGJcBs2CQ44Jfs6Sm-41" value="- condition : Func&amp;lt;bool&amp;gt;" style="text;strokeColor=none;fillColor=none;align=left;verticalAlign=top;spacingLeft=4;spacingRight=4;overflow=hidden;rotatable=0;points=[[0,0.5],[1,0.5]];portConstraint=eastwest;whiteSpace=wrap;html=1;" vertex="1" parent="6iZXGJcBs2CQ44Jfs6Sm-39">
          <mxGeometry y="26" width="180" height="26" as="geometry" />
        </mxCell>
        <mxCell id="6iZXGJcBs2CQ44Jfs6Sm-40" value="" style="line;strokeWidth=1;fillColor=none;align=left;verticalAlign=middle;spacingTop=-1;spacingLeft=3;spacingRight=3;rotatable=0;labelPosition=right;points=[];portConstraint=eastwest;strokeColor=inherit;" vertex="1" parent="6iZXGJcBs2CQ44Jfs6Sm-39">
          <mxGeometry y="52" width="180" height="8" as="geometry" />
        </mxCell>
        <mxCell id="6iZXGJcBs2CQ44Jfs6Sm-42" value="" style="endArrow=block;endSize=16;endFill=0;html=1;rounded=0;strokeWidth=2;" edge="1" parent="1" source="6iZXGJcBs2CQ44Jfs6Sm-39" target="6iZXGJcBs2CQ44Jfs6Sm-32">
          <mxGeometry width="160" relative="1" as="geometry">
            <mxPoint x="799" y="187" as="sourcePoint" />
            <mxPoint x="640" y="253" as="targetPoint" />
          </mxGeometry>
        </mxCell>
        <mxCell id="6iZXGJcBs2CQ44Jfs6Sm-43" value="Composite" style="swimlane;fontStyle=1;align=center;verticalAlign=top;childLayout=stackLayout;horizontal=1;startSize=26;horizontalStack=0;resizeParent=1;resizeParentMax=0;resizeLast=0;collapsible=1;marginBottom=0;whiteSpace=wrap;html=1;" vertex="1" parent="1">
          <mxGeometry x="740" y="398" width="180" height="34" as="geometry" />
        </mxCell>
        <mxCell id="6iZXGJcBs2CQ44Jfs6Sm-45" value="" style="line;strokeWidth=1;fillColor=none;align=left;verticalAlign=middle;spacingTop=-1;spacingLeft=3;spacingRight=3;rotatable=0;labelPosition=right;points=[];portConstraint=eastwest;strokeColor=inherit;" vertex="1" parent="6iZXGJcBs2CQ44Jfs6Sm-43">
          <mxGeometry y="26" width="180" height="8" as="geometry" />
        </mxCell>
        <mxCell id="6iZXGJcBs2CQ44Jfs6Sm-46" value="" style="endArrow=block;endSize=16;endFill=0;html=1;rounded=0;strokeWidth=2;" edge="1" parent="1" source="6iZXGJcBs2CQ44Jfs6Sm-43" target="6iZXGJcBs2CQ44Jfs6Sm-33">
          <mxGeometry width="160" relative="1" as="geometry">
            <mxPoint x="750" y="256" as="sourcePoint" />
            <mxPoint x="640" y="274" as="targetPoint" />
          </mxGeometry>
        </mxCell>
        <mxCell id="6iZXGJcBs2CQ44Jfs6Sm-47" value="Selector" style="swimlane;fontStyle=1;align=center;verticalAlign=top;childLayout=stackLayout;horizontal=1;startSize=26;horizontalStack=0;resizeParent=1;resizeParentMax=0;resizeLast=0;collapsible=1;marginBottom=0;whiteSpace=wrap;html=1;" vertex="1" parent="1">
          <mxGeometry x="990" y="330" width="180" height="34" as="geometry" />
        </mxCell>
        <mxCell id="6iZXGJcBs2CQ44Jfs6Sm-49" value="" style="line;strokeWidth=1;fillColor=none;align=left;verticalAlign=middle;spacingTop=-1;spacingLeft=3;spacingRight=3;rotatable=0;labelPosition=right;points=[];portConstraint=eastwest;strokeColor=inherit;" vertex="1" parent="6iZXGJcBs2CQ44Jfs6Sm-47">
          <mxGeometry y="26" width="180" height="8" as="geometry" />
        </mxCell>
        <mxCell id="6iZXGJcBs2CQ44Jfs6Sm-51" value="Sequence" style="swimlane;fontStyle=1;align=center;verticalAlign=top;childLayout=stackLayout;horizontal=1;startSize=26;horizontalStack=0;resizeParent=1;resizeParentMax=0;resizeLast=0;collapsible=1;marginBottom=0;whiteSpace=wrap;html=1;" vertex="1" parent="1">
          <mxGeometry x="990" y="364" width="180" height="34" as="geometry" />
        </mxCell>
        <mxCell id="6iZXGJcBs2CQ44Jfs6Sm-52" value="" style="line;strokeWidth=1;fillColor=none;align=left;verticalAlign=middle;spacingTop=-1;spacingLeft=3;spacingRight=3;rotatable=0;labelPosition=right;points=[];portConstraint=eastwest;strokeColor=inherit;" vertex="1" parent="6iZXGJcBs2CQ44Jfs6Sm-51">
          <mxGeometry y="26" width="180" height="8" as="geometry" />
        </mxCell>
        <mxCell id="6iZXGJcBs2CQ44Jfs6Sm-54" value="Parallel" style="swimlane;fontStyle=1;align=center;verticalAlign=top;childLayout=stackLayout;horizontal=1;startSize=26;horizontalStack=0;resizeParent=1;resizeParentMax=0;resizeLast=0;collapsible=1;marginBottom=0;whiteSpace=wrap;html=1;" vertex="1" parent="1">
          <mxGeometry x="990" y="410" width="180" height="60" as="geometry" />
        </mxCell>
        <mxCell id="M_UEpirwGER48vbvpm8w-10" value="- successPolicy : int" style="text;strokeColor=none;fillColor=none;align=left;verticalAlign=top;spacingLeft=4;spacingRight=4;overflow=hidden;rotatable=0;points=[[0,0.5],[1,0.5]];portConstraint=eastwest;whiteSpace=wrap;html=1;" vertex="1" parent="6iZXGJcBs2CQ44Jfs6Sm-54">
          <mxGeometry y="26" width="180" height="26" as="geometry" />
        </mxCell>
        <mxCell id="6iZXGJcBs2CQ44Jfs6Sm-55" value="" style="line;strokeWidth=1;fillColor=none;align=left;verticalAlign=middle;spacingTop=-1;spacingLeft=3;spacingRight=3;rotatable=0;labelPosition=right;points=[];portConstraint=eastwest;strokeColor=inherit;" vertex="1" parent="6iZXGJcBs2CQ44Jfs6Sm-54">
          <mxGeometry y="52" width="180" height="8" as="geometry" />
        </mxCell>
        <mxCell id="6iZXGJcBs2CQ44Jfs6Sm-56" value="" style="endArrow=block;endSize=16;endFill=0;html=1;rounded=0;entryX=1;entryY=0.5;entryDx=0;entryDy=0;exitX=0;exitY=0.25;exitDx=0;exitDy=0;" edge="1" parent="1" source="6iZXGJcBs2CQ44Jfs6Sm-54" target="6iZXGJcBs2CQ44Jfs6Sm-43">
          <mxGeometry width="160" relative="1" as="geometry">
            <mxPoint x="980" y="490" as="sourcePoint" />
            <mxPoint x="930" y="459" as="targetPoint" />
            <Array as="points">
              <mxPoint x="960" y="425" />
              <mxPoint x="960" y="415" />
            </Array>
          </mxGeometry>
        </mxCell>
        <mxCell id="6iZXGJcBs2CQ44Jfs6Sm-57" value="" style="endArrow=block;endSize=16;endFill=0;html=1;rounded=0;entryX=1;entryY=0.5;entryDx=0;entryDy=0;exitX=0;exitY=0.5;exitDx=0;exitDy=0;" edge="1" parent="1" source="6iZXGJcBs2CQ44Jfs6Sm-51" target="6iZXGJcBs2CQ44Jfs6Sm-43">
          <mxGeometry width="160" relative="1" as="geometry">
            <mxPoint x="1000" y="430" as="sourcePoint" />
            <mxPoint x="930" y="437" as="targetPoint" />
            <Array as="points">
              <mxPoint x="960" y="381" />
              <mxPoint x="960" y="415" />
            </Array>
          </mxGeometry>
        </mxCell>
        <mxCell id="6iZXGJcBs2CQ44Jfs6Sm-58" value="«interface»&lt;br&gt;&lt;b&gt;IPausable&lt;br&gt;&lt;br&gt;{get} isPaused : bool&lt;br&gt;Pause(pause : bool) : void&lt;br&gt;&lt;/b&gt;" style="html=1;whiteSpace=wrap;" vertex="1" parent="1">
          <mxGeometry x="450" y="420" width="180" height="80" as="geometry" />
        </mxCell>
        <mxCell id="6iZXGJcBs2CQ44Jfs6Sm-59" value="Condition" style="swimlane;fontStyle=1;align=center;verticalAlign=top;childLayout=stackLayout;horizontal=1;startSize=26;horizontalStack=0;resizeParent=1;resizeParentMax=0;resizeLast=0;collapsible=1;marginBottom=0;whiteSpace=wrap;html=1;" vertex="1" parent="1">
          <mxGeometry x="740" y="260" width="180" height="60" as="geometry" />
        </mxCell>
        <mxCell id="6iZXGJcBs2CQ44Jfs6Sm-60" value="- condition : Func&amp;lt;bool&amp;gt;" style="text;strokeColor=none;fillColor=none;align=left;verticalAlign=top;spacingLeft=4;spacingRight=4;overflow=hidden;rotatable=0;points=[[0,0.5],[1,0.5]];portConstraint=eastwest;whiteSpace=wrap;html=1;" vertex="1" parent="6iZXGJcBs2CQ44Jfs6Sm-59">
          <mxGeometry y="26" width="180" height="26" as="geometry" />
        </mxCell>
        <mxCell id="6iZXGJcBs2CQ44Jfs6Sm-61" value="" style="line;strokeWidth=1;fillColor=none;align=left;verticalAlign=middle;spacingTop=-1;spacingLeft=3;spacingRight=3;rotatable=0;labelPosition=right;points=[];portConstraint=eastwest;strokeColor=inherit;" vertex="1" parent="6iZXGJcBs2CQ44Jfs6Sm-59">
          <mxGeometry y="52" width="180" height="8" as="geometry" />
        </mxCell>
        <mxCell id="M_UEpirwGER48vbvpm8w-1" value="Execution" style="swimlane;fontStyle=1;align=center;verticalAlign=top;childLayout=stackLayout;horizontal=1;startSize=26;horizontalStack=0;resizeParent=1;resizeParentMax=0;resizeLast=0;collapsible=1;marginBottom=0;whiteSpace=wrap;html=1;" vertex="1" parent="1">
          <mxGeometry x="740" y="440" width="180" height="62" as="geometry" />
        </mxCell>
        <mxCell id="M_UEpirwGER48vbvpm8w-2" value="# Execute() : Unitask&amp;lt;bool&amp;gt;" style="text;strokeColor=none;fillColor=none;align=left;verticalAlign=top;spacingLeft=4;spacingRight=4;overflow=hidden;rotatable=0;points=[[0,0.5],[1,0.5]];portConstraint=eastwest;whiteSpace=wrap;html=1;" vertex="1" parent="M_UEpirwGER48vbvpm8w-1">
          <mxGeometry y="26" width="180" height="26" as="geometry" />
        </mxCell>
        <mxCell id="M_UEpirwGER48vbvpm8w-3" value="" style="line;strokeWidth=1;fillColor=none;align=left;verticalAlign=middle;spacingTop=-1;spacingLeft=3;spacingRight=3;rotatable=0;labelPosition=right;points=[];portConstraint=eastwest;strokeColor=inherit;" vertex="1" parent="M_UEpirwGER48vbvpm8w-1">
          <mxGeometry y="52" width="180" height="10" as="geometry" />
        </mxCell>
        <mxCell id="M_UEpirwGER48vbvpm8w-4" value="Decorator" style="swimlane;fontStyle=1;align=center;verticalAlign=top;childLayout=stackLayout;horizontal=1;startSize=26;horizontalStack=0;resizeParent=1;resizeParentMax=0;resizeLast=0;collapsible=1;marginBottom=0;whiteSpace=wrap;html=1;" vertex="1" parent="1">
          <mxGeometry x="740" y="330" width="180" height="60" as="geometry" />
        </mxCell>
        <mxCell id="M_UEpirwGER48vbvpm8w-5" value="# Decorate(childResult : bool) : Unitask&amp;lt;bool&amp;gt;" style="text;strokeColor=none;fillColor=none;align=left;verticalAlign=top;spacingLeft=4;spacingRight=4;overflow=hidden;rotatable=0;points=[[0,0.5],[1,0.5]];portConstraint=eastwest;whiteSpace=wrap;html=1;" vertex="1" parent="M_UEpirwGER48vbvpm8w-4">
          <mxGeometry y="26" width="180" height="26" as="geometry" />
        </mxCell>
        <mxCell id="M_UEpirwGER48vbvpm8w-6" value="" style="line;strokeWidth=1;fillColor=none;align=left;verticalAlign=middle;spacingTop=-1;spacingLeft=3;spacingRight=3;rotatable=0;labelPosition=right;points=[];portConstraint=eastwest;strokeColor=inherit;" vertex="1" parent="M_UEpirwGER48vbvpm8w-4">
          <mxGeometry y="52" width="180" height="8" as="geometry" />
        </mxCell>
        <mxCell id="M_UEpirwGER48vbvpm8w-7" value="" style="endArrow=block;endSize=16;endFill=0;html=1;rounded=0;strokeWidth=2;" edge="1" parent="1" source="M_UEpirwGER48vbvpm8w-4" target="6iZXGJcBs2CQ44Jfs6Sm-32">
          <mxGeometry width="160" relative="1" as="geometry">
            <mxPoint x="750" y="380" as="sourcePoint" />
            <mxPoint x="640" y="380" as="targetPoint" />
          </mxGeometry>
        </mxCell>
        <mxCell id="M_UEpirwGER48vbvpm8w-8" value="" style="endArrow=block;endSize=16;endFill=0;html=1;rounded=0;strokeWidth=2;" edge="1" parent="1" source="6iZXGJcBs2CQ44Jfs6Sm-59" target="6iZXGJcBs2CQ44Jfs6Sm-32">
          <mxGeometry width="160" relative="1" as="geometry">
            <mxPoint x="848" y="570" as="sourcePoint" />
            <mxPoint x="593" y="330" as="targetPoint" />
          </mxGeometry>
        </mxCell>
        <mxCell id="M_UEpirwGER48vbvpm8w-11" value="" style="endArrow=block;endSize=16;endFill=0;html=1;rounded=0;entryX=1;entryY=0.5;entryDx=0;entryDy=0;exitX=0;exitY=0.25;exitDx=0;exitDy=0;" edge="1" parent="1" source="6iZXGJcBs2CQ44Jfs6Sm-39" target="hr1qq8S8WIhstJESoV6x-10">
          <mxGeometry width="160" relative="1" as="geometry">
            <mxPoint x="750" y="170" as="sourcePoint" />
            <mxPoint x="640" y="170" as="targetPoint" />
            <Array as="points">
              <mxPoint x="690" y="205" />
              <mxPoint x="690" y="160" />
            </Array>
          </mxGeometry>
        </mxCell>
        <mxCell id="M_UEpirwGER48vbvpm8w-12" value="" style="endArrow=block;endSize=16;endFill=0;html=1;rounded=0;entryX=1;entryY=0.5;entryDx=0;entryDy=0;exitX=0;exitY=0.25;exitDx=0;exitDy=0;" edge="1" parent="1" source="6iZXGJcBs2CQ44Jfs6Sm-59" target="hr1qq8S8WIhstJESoV6x-10">
          <mxGeometry width="160" relative="1" as="geometry">
            <mxPoint x="750" y="215" as="sourcePoint" />
            <mxPoint x="640" y="170" as="targetPoint" />
            <Array as="points">
              <mxPoint x="690" y="275" />
              <mxPoint x="690" y="160" />
            </Array>
          </mxGeometry>
        </mxCell>
        <mxCell id="M_UEpirwGER48vbvpm8w-13" value="" style="endArrow=block;endSize=16;endFill=0;html=1;rounded=0;entryX=1;entryY=0.5;entryDx=0;entryDy=0;exitX=0;exitY=0.25;exitDx=0;exitDy=0;" edge="1" parent="1" source="M_UEpirwGER48vbvpm8w-4" target="hr1qq8S8WIhstJESoV6x-10">
          <mxGeometry width="160" relative="1" as="geometry">
            <mxPoint x="750" y="285" as="sourcePoint" />
            <mxPoint x="640" y="170" as="targetPoint" />
            <Array as="points">
              <mxPoint x="690" y="345" />
              <mxPoint x="690" y="160" />
            </Array>
          </mxGeometry>
        </mxCell>
        <mxCell id="M_UEpirwGER48vbvpm8w-14" value="" style="endArrow=block;endSize=16;endFill=0;html=1;rounded=0;entryX=1;entryY=0.5;entryDx=0;entryDy=0;exitX=0;exitY=0.5;exitDx=0;exitDy=0;" edge="1" parent="1" source="6iZXGJcBs2CQ44Jfs6Sm-43" target="hr1qq8S8WIhstJESoV6x-10">
          <mxGeometry width="160" relative="1" as="geometry">
            <mxPoint x="750" y="355" as="sourcePoint" />
            <mxPoint x="640" y="170" as="targetPoint" />
            <Array as="points">
              <mxPoint x="690" y="415" />
              <mxPoint x="690" y="160" />
            </Array>
          </mxGeometry>
        </mxCell>
        <mxCell id="M_UEpirwGER48vbvpm8w-15" value="" style="endArrow=block;endSize=16;endFill=0;html=1;rounded=0;entryX=1;entryY=0.5;entryDx=0;entryDy=0;exitX=0;exitY=0.25;exitDx=0;exitDy=0;" edge="1" parent="1" source="M_UEpirwGER48vbvpm8w-1" target="hr1qq8S8WIhstJESoV6x-10">
          <mxGeometry width="160" relative="1" as="geometry">
            <mxPoint x="750" y="425" as="sourcePoint" />
            <mxPoint x="640" y="170" as="targetPoint" />
            <Array as="points">
              <mxPoint x="690" y="456" />
              <mxPoint x="690" y="160" />
            </Array>
          </mxGeometry>
        </mxCell>
        <mxCell id="M_UEpirwGER48vbvpm8w-16" value="" style="endArrow=block;endSize=16;endFill=0;html=1;rounded=0;strokeWidth=2;" edge="1" parent="1" source="M_UEpirwGER48vbvpm8w-1" target="6iZXGJcBs2CQ44Jfs6Sm-58">
          <mxGeometry width="160" relative="1" as="geometry">
            <mxPoint x="750" y="411" as="sourcePoint" />
            <mxPoint x="640" y="394" as="targetPoint" />
          </mxGeometry>
        </mxCell>
        <mxCell id="M_UEpirwGER48vbvpm8w-19" value="" style="endArrow=block;endSize=16;endFill=0;html=1;rounded=0;entryX=1;entryY=0.5;entryDx=0;entryDy=0;exitX=0;exitY=0.5;exitDx=0;exitDy=0;" edge="1" parent="1" source="6iZXGJcBs2CQ44Jfs6Sm-47" target="6iZXGJcBs2CQ44Jfs6Sm-43">
          <mxGeometry width="160" relative="1" as="geometry">
            <mxPoint x="1000" y="391" as="sourcePoint" />
            <mxPoint x="930" y="425" as="targetPoint" />
            <Array as="points">
              <mxPoint x="960" y="347" />
              <mxPoint x="960" y="415" />
            </Array>
          </mxGeometry>
        </mxCell>
        <mxCell id="M_UEpirwGER48vbvpm8w-20" value="" style="endArrow=block;endSize=16;endFill=0;html=1;rounded=0;entryX=1;entryY=0.25;entryDx=0;entryDy=0;" edge="1" parent="1" source="hr1qq8S8WIhstJESoV6x-16" target="M_UEpirwGER48vbvpm8w-1">
          <mxGeometry width="160" relative="1" as="geometry">
            <mxPoint x="1000" y="357" as="sourcePoint" />
            <mxPoint x="930" y="425" as="targetPoint" />
            <Array as="points">
              <mxPoint x="960" y="585" />
              <mxPoint x="960" y="456" />
            </Array>
          </mxGeometry>
        </mxCell>
        <mxCell id="M_UEpirwGER48vbvpm8w-23" value="n" style="text;html=1;strokeColor=none;fillColor=none;align=center;verticalAlign=middle;whiteSpace=wrap;rounded=0;" vertex="1" parent="1">
          <mxGeometry x="430" y="120" width="20" height="23" as="geometry" />
        </mxCell>
        <mxCell id="M_UEpirwGER48vbvpm8w-24" value="1" style="endArrow=open;html=1;endSize=12;startArrow=diamondThin;startSize=14;startFill=0;edgeStyle=orthogonalEdgeStyle;align=left;verticalAlign=bottom;rounded=0;exitX=1;exitY=0.5;exitDx=0;exitDy=0;entryX=0;entryY=0.5;entryDx=0;entryDy=0;" edge="1" parent="1" source="6iZXGJcBs2CQ44Jfs6Sm-12" target="6iZXGJcBs2CQ44Jfs6Sm-58">
          <mxGeometry x="-1" y="3" relative="1" as="geometry">
            <mxPoint x="590" y="340" as="sourcePoint" />
            <mxPoint x="750" y="340" as="targetPoint" />
          </mxGeometry>
        </mxCell>
        <mxCell id="M_UEpirwGER48vbvpm8w-26" value="1" style="endArrow=open;html=1;endSize=12;startArrow=diamondThin;startSize=14;startFill=0;edgeStyle=orthogonalEdgeStyle;align=left;verticalAlign=bottom;rounded=0;exitX=1;exitY=0.5;exitDx=0;exitDy=0;" edge="1" parent="1" source="6iZXGJcBs2CQ44Jfs6Sm-11" target="M_UEpirwGER48vbvpm8w-1">
          <mxGeometry x="-1" y="3" relative="1" as="geometry">
            <mxPoint x="390" y="231" as="sourcePoint" />
            <mxPoint x="460" y="470" as="targetPoint" />
            <Array as="points">
              <mxPoint x="400" y="247" />
              <mxPoint x="400" y="530" />
              <mxPoint x="830" y="530" />
            </Array>
          </mxGeometry>
        </mxCell>
        <mxCell id="M_UEpirwGER48vbvpm8w-27" value="n" style="text;html=1;strokeColor=none;fillColor=none;align=center;verticalAlign=middle;whiteSpace=wrap;rounded=0;" vertex="1" parent="1">
          <mxGeometry x="430" y="432" width="20" height="23" as="geometry" />
        </mxCell>
        <mxCell id="M_UEpirwGER48vbvpm8w-28" value="n" style="text;html=1;strokeColor=none;fillColor=none;align=center;verticalAlign=middle;whiteSpace=wrap;rounded=0;" vertex="1" parent="1">
          <mxGeometry x="810" y="510" width="20" height="23" as="geometry" />
        </mxCell>
        <mxCell id="M_UEpirwGER48vbvpm8w-29" value="UML" style="rounded=1;whiteSpace=wrap;html=1;fillColor=#0050ef;fontColor=#ffffff;strokeColor=#001DBC;fontSize=20;" vertex="1" parent="1">
          <mxGeometry x="40" y="20" width="120" height="60" as="geometry" />
        </mxCell>
      </root>
    </mxGraphModel>
  </diagram>
</mxfile>
